<svg width="21" height="21" viewBox="0 0 21 21" fill="none" xmlns="http://www.w3.org/2000/svg">
<path d="M12.6434 18.6208L12.6534 18.6278C13.5192 19.179 14.5471 19.4184 15.5673 19.3064C16.5875 19.1943 17.539 18.7376 18.2644 18.0116L18.8947 17.3814C19.0343 17.2418 19.1451 17.0761 19.2207 16.8936C19.2963 16.7112 19.3352 16.5157 19.3352 16.3183C19.3352 16.1208 19.2963 15.9253 19.2207 15.7429C19.1451 15.5605 19.0343 15.3948 18.8947 15.2552L16.2365 12.599C16.0969 12.4593 15.9312 12.3485 15.7487 12.2729C15.5663 12.1973 15.3708 12.1584 15.1734 12.1584C14.9759 12.1584 14.7804 12.1973 14.598 12.2729C14.4156 12.3485 14.2499 12.4593 14.1103 12.599C13.8284 12.8807 13.4462 13.039 13.0477 13.039C12.6492 13.039 12.267 12.8807 11.9851 12.599L7.73476 8.34761C7.453 8.06577 7.29472 7.68355 7.29472 7.28502C7.29472 6.8865 7.453 6.50428 7.73476 6.22244C7.87443 6.08286 7.98522 5.91714 8.06081 5.73473C8.1364 5.55232 8.17531 5.3568 8.17531 5.15935C8.17531 4.9619 8.1364 4.76638 8.06081 4.58397C7.98522 4.40156 7.87443 4.23584 7.73476 4.09626L5.07754 1.44004C4.7957 1.15828 4.41348 1 4.01495 1C3.61643 1 3.23421 1.15828 2.95237 1.44004L2.32113 2.07028C1.59529 2.79589 1.13873 3.74741 1.02687 4.76761C0.915008 5.78782 1.15455 6.81566 1.70592 7.6813L1.71193 7.69132C4.62383 11.9996 8.33462 15.7097 12.6434 18.6208V18.6208Z" stroke="white" stroke-width="2" stroke-linecap="round" stroke-linejoin="round"/>
</svg>
