<svg width="21" height="17" viewBox="0 0 21 17" fill="none" xmlns="http://www.w3.org/2000/svg">
<path d="M19.3333 3.58301V12.7497C19.3333 13.3575 19.0919 13.9404 18.6621 14.3701C18.2323 14.7999 17.6495 15.0413 17.0417 15.0413H3.29167C2.68388 15.0413 2.10098 14.7999 1.67121 14.3701C1.24144 13.9404 1 13.3575 1 12.7497V3.58301" stroke="white" stroke-width="2" stroke-linecap="round" stroke-linejoin="round"/>
<path d="M19.3333 3.58268C19.3333 2.97489 19.0919 2.392 18.6621 1.96223C18.2323 1.53246 17.6495 1.29102 17.0417 1.29102H3.29167C2.68388 1.29102 2.10098 1.53246 1.67121 1.96223C1.24144 2.392 1 2.97489 1 3.58268L8.95208 8.54796C9.3163 8.7756 9.73716 8.8963 10.1667 8.8963C10.5962 8.8963 11.017 8.7756 11.3812 8.54796L19.3333 3.58268Z" stroke="white" stroke-width="2" stroke-linecap="round" stroke-linejoin="round"/>
</svg>
